<svg width="20" height="20" viewBox="0 0 20 20" fill="none" xmlns="http://www.w3.org/2000/svg">
<path fill-rule="evenodd" clip-rule="evenodd" d="M5.48849 2.90453C5.41461 2.77649 5.45845 2.61333 5.58641 2.53893C5.71437 2.46521 5.87793 2.50917 5.95181 2.63721L6.34477 3.31769C6.44805 3.49661 6.31757 3.71889 6.11337 3.71889C6.02085 3.71889 5.93093 3.67109 5.88137 3.58525L5.48849 2.90453ZM2.35537 5.77045C2.42925 5.64221 2.59273 5.59845 2.72077 5.67241L3.40137 6.06529C3.63777 6.20181 3.53937 6.56433 3.26737 6.56433C3.22193 6.56433 3.17597 6.55285 3.13389 6.52873L2.45329 6.13565C2.32533 6.06165 2.28149 5.89805 2.35537 5.77045ZM18.8274 10.184C18.8274 10.3319 18.7076 10.4515 18.5599 10.4515H17.774C17.6262 10.4515 17.5065 10.3319 17.5065 10.184C17.5065 10.0361 17.6262 9.91665 17.774 9.91665H18.5599C18.7076 9.91665 18.8274 10.0361 18.8274 10.184ZM2.22601 10.4515H1.44021C1.29249 10.4515 1.17273 10.3319 1.17273 10.184C1.17273 10.0361 1.29249 9.91665 1.44021 9.91665H2.22601C2.37377 9.91665 2.49357 10.0361 2.49357 10.184C2.49361 10.3319 2.37377 10.4515 2.22601 10.4515ZM16.5008 6.43065C16.427 6.30285 16.4707 6.13921 16.5987 6.06529L17.2794 5.67241C17.4073 5.59849 17.5709 5.64221 17.6448 5.77045C17.7186 5.89805 17.6748 6.06165 17.5469 6.13561L16.8662 6.52869C16.7401 6.60125 16.5756 6.56013 16.5008 6.43065ZM9.73249 2.41001V1.62425C9.73249 1.47617 9.85229 1.35669 10 1.35669C10.1477 1.35669 10.2675 1.47613 10.2675 1.62425V2.40997C10.2675 2.55761 10.1477 2.67753 10 2.67753C9.85233 2.67753 9.73249 2.55765 9.73249 2.41001ZM13.6554 3.31769L14.0483 2.63721C14.1221 2.50917 14.2856 2.46521 14.4137 2.53893C14.5416 2.61329 14.5855 2.77649 14.5116 2.90453L14.1186 3.58525C14.0439 3.71477 13.8791 3.75581 13.7532 3.68329C13.6253 3.60913 13.5815 3.44569 13.6554 3.31769ZM8.68325 5.02077C8.68325 4.86345 8.81133 4.73541 8.96869 4.73541H11.0314C11.1888 4.73541 11.3169 4.86345 11.3169 5.02077V5.64061H8.68325V5.02077ZM13.6213 6.59969V7.12149L10.4996 8.79373C10.1774 8.96641 9.82269 8.96641 9.50057 8.79373L6.37881 7.12149V6.59969C6.37881 6.36597 6.56901 6.17549 6.80285 6.17549H13.1972C13.431 6.17549 13.6213 6.36597 13.6213 6.59969ZM13.1972 11.1137C13.431 11.1137 13.6213 10.9235 13.6213 10.6898V7.72849L10.7521 9.26525C10.2672 9.52493 9.73281 9.52489 9.24793 9.26525L6.37877 7.72849V10.6898C6.37877 10.9235 6.56897 11.1137 6.80281 11.1137H13.1972ZM5.84373 6.59969V10.6898C5.84373 11.2183 6.27401 11.6489 6.80281 11.6489H13.1971C13.726 11.6489 14.1562 11.2183 14.1562 10.6898V6.59969C14.1562 6.07113 13.726 5.64061 13.1971 5.64061H11.8518V5.02077C11.8518 4.56841 11.4838 4.20033 11.0314 4.20033H8.96865C8.51629 4.20033 8.14825 4.56841 8.14825 5.02077V5.64061H6.80285C6.27405 5.64061 5.84373 6.07113 5.84373 6.59969ZM16.8279 14.1016L12.72 16.4735C11.631 17.1021 10.9854 17.4179 9.77305 17.5969C8.49217 17.786 7.21725 17.6886 6.03037 17.5554C5.49225 17.4952 5.00033 17.4495 4.50249 17.4139V13.9486C5.50217 13.8553 6.38149 13.8701 7.50741 14.1713C7.52997 14.1771 7.55309 14.18 7.57645 14.18H10.4745C10.9154 14.18 11.2111 14.6304 11.0448 15.0312C10.9483 15.2635 10.7244 15.4141 10.4745 15.4141H7.57645C7.42873 15.4141 7.30897 15.5336 7.30897 15.6817C7.30897 15.8293 7.42873 15.949 7.57645 15.949H10.4745C10.8622 15.949 11.2156 15.7559 11.4273 15.4423C11.5269 15.4608 11.626 15.4705 11.7236 15.471C12.1909 15.4724 12.4257 15.2943 12.75 15.1067L16.2436 13.0899C16.5226 12.9287 16.8806 13.0245 17.0418 13.3036C17.2029 13.5828 17.107 13.9407 16.8279 14.1016ZM3.96757 17.8622C3.96757 17.9981 3.85713 18.1083 3.72149 18.1083H2.51929C2.38361 18.1083 2.27321 17.9981 2.27321 17.8622V13.7752C2.27321 13.6393 2.38361 13.5291 2.51929 13.5291H3.72149C3.85717 13.5291 3.96757 13.6393 3.96757 13.7752V17.8622ZM15.9761 12.6264L12.4826 14.6433C12.1629 14.828 11.9949 14.9683 11.6188 14.9302C11.6982 14.2479 11.163 13.6452 10.4745 13.6452H7.61145C6.41165 13.3287 5.47949 13.3171 4.41633 13.4194C4.28661 13.1671 4.02401 12.9943 3.72145 12.9943H2.51929C2.08857 12.9943 1.73825 13.3445 1.73825 13.7752V17.8622C1.73825 18.2931 2.08857 18.6434 2.51929 18.6434H3.72149C4.12253 18.6434 4.45377 18.3394 4.49753 17.9498C4.97673 17.9848 5.45185 18.0292 5.97089 18.0873C7.25161 18.2308 8.53929 18.3198 9.85117 18.1261C11.1998 17.9271 11.9358 17.5441 12.9876 16.9367L17.0955 14.5648C17.63 14.2564 17.8137 13.5705 17.5051 13.0359C17.1965 12.5015 16.5106 12.3176 15.9761 12.6264Z" fill="white"/>
</svg>
