<svg width="20" height="20" viewBox="0 0 20 20" fill="none" xmlns="http://www.w3.org/2000/svg">
<path d="M19.0909 10.9091C18.8182 10.9091 18.6364 11.0909 18.6364 11.3636V17.2727C18.6364 17.5454 18.4546 17.7272 18.1819 17.7272H1.81818C1.54545 17.7272 1.36365 17.5454 1.36365 17.2727V11.3636C1.36365 11.0909 1.18182 10.9091 0.909121 10.9091C0.636426 10.9091 0.45459 11.0909 0.45459 11.3636V17.2727C0.45459 18.0454 1.04549 18.6363 1.81822 18.6363H18.1819C18.9546 18.6363 19.5455 18.0454 19.5455 17.2727V11.3636C19.5455 11.0909 19.3637 10.9091 19.0909 10.9091Z" fill="white"/>
<path d="M18.6364 4.54541H1.36363C0.590898 4.54541 0 5.13631 0 5.90904V8.81814C0 9.45447 0.454531 9.99994 1.04547 10.1363L8.18184 11.7272V13.1817C8.18184 13.4545 8.36367 13.6363 8.63637 13.6363H11.3636C11.6364 13.6363 11.8182 13.4544 11.8182 13.1817V11.7272L18.9545 10.1363C19.5455 9.99994 20 9.45447 20 8.81811V5.909C20 5.13631 19.4091 4.54541 18.6364 4.54541ZM10.9091 12.7272H9.09094V10.909H10.9091V12.7272ZM19.0909 8.81811C19.0909 9.04537 18.9545 9.22721 18.7273 9.27264L11.8182 10.8181V10.4545C11.8182 10.1817 11.6363 9.99994 11.3636 9.99994H8.63637C8.36363 9.99994 8.18184 10.1818 8.18184 10.4545V10.8181L1.27273 9.27268C1.04547 9.22721 0.909102 9.04541 0.909102 8.81814V5.90904C0.909102 5.63631 1.09094 5.45451 1.36363 5.45451H18.6364C18.9091 5.45451 19.0909 5.63635 19.0909 5.90904V8.81811Z" fill="white"/>
<path d="M12.2727 1.36365H7.72728C6.95455 1.36365 6.36365 1.95455 6.36365 2.72728V3.18181C6.36365 3.45455 6.54548 3.63634 6.81818 3.63634C7.09087 3.63634 7.27271 3.45451 7.27271 3.18181V2.72728C7.27271 2.45455 7.45455 2.27275 7.72724 2.27275H12.2727C12.5454 2.27275 12.7272 2.45458 12.7272 2.72728V3.18181C12.7272 3.45455 12.9091 3.63634 13.1818 3.63634C13.4545 3.63634 13.6363 3.45451 13.6363 3.18181V2.72728C13.6364 1.95455 13.0455 1.36365 12.2727 1.36365Z" fill="white"/>
<path d="M5.47173 16.8372C5.28087 16.8372 5.09002 16.7644 4.94449 16.6189C4.65343 16.3278 4.65343 15.8558 4.94449 15.5644L13.7272 6.78201C14.0183 6.49096 14.4903 6.49096 14.7817 6.78201C15.0727 7.07307 15.0727 7.54514 14.7817 7.8365L5.99868 16.6189C5.85315 16.7644 5.66259 16.8372 5.47173 16.8372Z" fill="white"/>
<path d="M14.2541 16.8349C14.0633 16.8349 13.8724 16.7622 13.7269 16.6166L4.94449 7.83394C4.65343 7.54288 4.65343 7.07081 4.94449 6.77945C5.23555 6.48839 5.70762 6.48839 5.99897 6.77945L14.7817 15.5622C15.0727 15.8532 15.0727 16.3253 14.7817 16.6166C14.6359 16.7622 14.445 16.8349 14.2541 16.8349Z" fill="white"/>
</svg>
